# xmcd
#
# Track frame offsets: 
#        150
#        11905
#        26387
#        43240
#        64810
#        81115
#        100032
#        117415
#        133940
#        152870
#        167940
#        183105
#        207580
#        221245
#        236335
#        252170
#
# Disc length: 3533 seconds
#
# Revision: 7
# Processed by: cddbd v1.5.2PL0 Copyright (c) Steve Scherf et al.
# Submitted via: ExactAudioCopy v0.99pb4
#
DISCID=e50dcb10
DTITLE=Various Artist - Les Plus Beaux Slows
DYEAR=1997
DGENRE=Slow
TTITLE0=The Platters - Only you (and you alone)  [1955]
TTITLE1=Aphrodite's child - Rain and tears  [1968]
TTITLE2=10 CC - I'm not in love  [1975]
TTITLE3=Kool and the gang - Cherish  [1968]
TTITLE4=Commodores - Three times a lady  [1978]
TTITLE5=Claude François - Comme d'habitude  [1967]
TTITLE6=Michel Delpech - Wight is wight  [1969]
TTITLE7=Il était une fois - J'ai encore rêvé d'elle  [1975]
TTITLE8=Nicolas Peyrac - So for away from L.A.  [1975]
TTITLE9=Johnny Hallyday - Que je t'aime  [1969]
TTITLE10=Mike Brant - Qui saura  [1971]
TTITLE11=Robert Charlebois and Louise Forestier - Lindberg  [1968]
TTITLE12=Patrick Juvet - La musica  [1972]
TTITLE13=Richard Anthony - Et j'entends siffler le train  [1962]
TTITLE14=Eddy Mitchell - Couleur menthe à l'eau  [1980]
TTITLE15=James Brown - It's a man's man's man's world  [1966]
EXTD=YEAR: 1997
EXTT0=
EXTT1=
EXTT2=
EXTT3=
EXTT4=
EXTT5=
EXTT6=
EXTT7=
EXTT8=
EXTT9=
EXTT10=
EXTT11=
EXTT12=
EXTT13=
EXTT14=
EXTT15=
PLAYORDER=
